HIERARCHY
ROOT Hips
{
	OFFSET 0.000000 0.000000 0.000000
	CHANNELS 6 Xposition Yposition Zposition Zrotation Yrotation Xrotation 
	JOINT LHipJoint
	{
		OFFSET 0.000000 0.000000 0.000000
		CHANNELS 3 Zrotation Yrotation Xrotation
		JOINT LeftUpLeg
		{
			OFFSET 1.363060 -1.794630 0.839290
			CHANNELS 3 Zrotation Yrotation Xrotation
			JOINT LeftLeg
			{
				OFFSET 2.448110 -6.726130 0.000000
				CHANNELS 3 Zrotation Yrotation Xrotation
				JOINT LeftFoot
				{
					OFFSET 2.562200 -7.039590 0.000000
					CHANNELS 3 Zrotation Yrotation Xrotation
					JOINT LeftToeBase
					{
						OFFSET 0.157640 -0.433110 2.322550
						CHANNELS 3 Zrotation Yrotation Xrotation
						End Site
						{
							OFFSET 0.000000 0.000000 0.000000
						}
					}
				}
			}
		}
	}
	JOINT RHipJoint
	{
		OFFSET 0.000000 0.000000 0.000000
		CHANNELS 3 Zrotation Yrotation Xrotation
		JOINT RightUpLeg
		{
			OFFSET -1.305520 -1.794630 0.839290
			CHANNELS 3 Zrotation Yrotation Xrotation
			JOINT RightLeg
			{
				OFFSET -2.542530 -6.985550 0.000000
				CHANNELS 3 Zrotation Yrotation Xrotation
				JOINT RightFoot
				{
					OFFSET -2.568260 -7.056230 0.000000
					CHANNELS 3 Zrotation Yrotation Xrotation
					JOINT RightToeBase
					{
						OFFSET -0.164730 -0.452590 2.363150
						CHANNELS 3 Zrotation Yrotation Xrotation
						End Site
						{
							OFFSET 0.000000 0.000000 0.000000
						}
					}
				}
			}
		}
	}
	JOINT LowerBack
	{
		OFFSET 0.000000 0.000000 0.000000
		CHANNELS 3 Zrotation Yrotation Xrotation
		JOINT Spine
		{
			OFFSET 0.028270 2.035590 -0.193380
			CHANNELS 3 Zrotation Yrotation Xrotation
			JOINT Spine1
			{
				OFFSET 0.056720 2.048850 -0.042750
				CHANNELS 3 Zrotation Yrotation Xrotation
				JOINT Neck
				{
					OFFSET 0.000000 0.000000 0.000000
					CHANNELS 3 Zrotation Yrotation Xrotation
					JOINT Neck1
					{
						OFFSET -0.054170 1.746240 0.172020
						CHANNELS 3 Zrotation Yrotation Xrotation
						JOINT Head
						{
							OFFSET 0.104070 1.761360 -0.123970
							CHANNELS 3 Zrotation Yrotation Xrotation
							End Site
							{
								OFFSET 0.000000 0.000000 0.000000
							}
						}
					}
				}
				JOINT LeftShoulder
				{
					OFFSET 0.000000 0.000000 0.000000
					CHANNELS 3 Zrotation Yrotation Xrotation
					JOINT LeftArm
					{
						OFFSET 3.362410 1.200890 -0.311210
						CHANNELS 3 Zrotation Yrotation Xrotation
						JOINT LeftForeArm
						{
							OFFSET 4.983000 -0.000000 -0.000000
							CHANNELS 3 Zrotation Yrotation Xrotation
							JOINT LeftHand
							{
								OFFSET 3.483560 -0.000000 -0.000000
								CHANNELS 3 Zrotation Yrotation Xrotation
								JOINT LeftFingerBase
								{
									OFFSET 0.000000 0.000000 0.000000
									CHANNELS 3 Zrotation Yrotation Xrotation
									JOINT LeftHandIndex1
									{
										OFFSET 0.715260 -0.000000 -0.000000
										CHANNELS 3 Zrotation Yrotation Xrotation
										End Site
										{
											OFFSET 0.000000 0.000000 0.000000
										}
									}
								}
								JOINT LThumb
								{
									OFFSET 0.000000 0.000000 0.000000
									CHANNELS 3 Zrotation Yrotation Xrotation
									End Site
									{
										OFFSET 0.000000 0.000000 0.000000
									}
								}
							}
						}
					}
				}
				JOINT RightShoulder
				{
					OFFSET 0.000000 0.000000 0.000000
					CHANNELS 3 Zrotation Yrotation Xrotation
					JOINT RightArm
					{
						OFFSET -3.136600 1.374050 -0.404650
						CHANNELS 3 Zrotation Yrotation Xrotation
						JOINT RightForeArm
						{
							OFFSET -5.241900 -0.000000 -0.000000
							CHANNELS 3 Zrotation Yrotation Xrotation
							JOINT RightHand
							{
								OFFSET -3.444170 -0.000000 -0.000000
								CHANNELS 3 Zrotation Yrotation Xrotation
								JOINT RightFingerBase
								{
									OFFSET 0.000000 0.000000 0.000000
									CHANNELS 3 Zrotation Yrotation Xrotation
									JOINT RightHandIndex1
									{
										OFFSET -0.622530 -0.000000 -0.000000
										CHANNELS 3 Zrotation Yrotation Xrotation
										End Site
										{
											OFFSET 0.000000 0.000000 0.000000
										}
									}
								}
								JOINT RThumb
								{
									OFFSET 0.000000 0.000000 0.000000
									CHANNELS 3 Zrotation Yrotation Xrotation
									End Site
									{
										OFFSET 0.000000 0.000000 0.000000
									}
								}
							}
						}
					}
				}
			}
		}
	}
}
MOTION
Frames: 12
Frame Time: 0.008333
-20.364419 16.143571 -3.001297 -163.039386 87.487865 -154.310129 -11.989482 6.588760 1.218416 1.426298 9.861718 18.124725 -0.594576 1.205943 9.207311 0.900538 5.153169 13.248479 1.578900 0.000000 -88.684300 7.937640 0.309624 1.470071 14.780244 -5.666443 -49.782669 2.243145 -2.573004 41.950652 -2.887234 -7.660584 -20.094288 1.652300 0.000000 -24.892100 8.569939 -6.316917 -4.734462 1.453562 -7.092932 -3.172450 -6.065217 -6.963746 3.425298 12.887814 -23.518359 -13.947741 -2.100963 -0.062524 -1.650712 0.000000 0.000000 0.000000 5.215896 8.257885 2.621597 -21.857778 -11.087545 6.198637 -1.809745 -45.306669 -0.015619 4.947109 -0.314122 -0.022822 -0.189827 0.225059 0.000000 0.000000 0.000000 0.000000 0.000000 0.000000 0.000000 19.463302 -23.836712 1.298904 83.880289 -25.552308 -3.377221 4.215413 21.160789 0.002807 7.602337 4.461846 0.295160 0.037139 0.003036 0.000000 0.000000 0.000000 0.000000 0.000000 0.000000 0.000000 
-20.124267 16.158968 -2.967574 -163.418617 87.388417 -154.699172 -12.006393 6.703932 1.358455 1.772961 9.484709 17.841372 -0.431117 1.353657 10.345255 0.982360 4.828720 16.330308 1.603800 0.000000 -90.473800 7.988813 0.280513 1.430191 14.730878 -5.649456 -49.231792 2.134248 -2.621124 43.010618 -3.015694 -8.141776 -20.818750 1.871200 -0.000000 -22.617300 8.703297 -6.301787 -4.894448 1.480958 -7.092007 -3.205060 -6.077327 -6.960314 3.436505 12.867328 -23.416234 -13.964978 -2.128117 -0.065478 -1.653574 0.000000 0.000000 0.000000 5.124291 8.400774 2.640866 -22.008259 -10.184455 6.274678 -1.866439 -44.655962 -0.015664 5.260573 -0.406737 -0.028295 -0.195852 0.216565 0.000000 0.000000 0.000000 0.000000 0.000000 0.000000 0.000000 19.537408 -23.692610 1.273818 83.405871 -25.132818 -4.241055 4.287471 20.592434 0.001922 8.088745 3.822285 0.268844 0.036901 0.005858 0.000000 0.000000 0.000000 0.000000 0.000000 0.000000 0.000000 
-19.882923 16.175603 -2.932684 -163.700423 87.302795 -155.000998 -12.036128 6.801046 1.504092 2.118589 9.102418 17.453461 -0.264161 1.483278 11.627947 1.088185 4.367386 19.525043 1.524101 0.000000 -91.279200 8.034299 0.244132 1.382958 14.715303 -5.672801 -48.634854 2.040536 -2.657793 43.956802 -3.135919 -8.590221 -21.530474 2.094801 0.000000 -20.248900 8.824971 -6.277419 -5.046373 1.503749 -7.081144 -3.234808 -6.092618 -6.947115 3.452799 12.841674 -23.286488 -13.975750 -2.160267 -0.069060 -1.654714 0.000000 0.000000 0.000000 4.998577 8.588380 2.650894 -22.285776 -9.302439 6.352543 -1.931564 -43.919948 -0.015559 5.580349 -0.484986 -0.033472 -0.201568 0.206837 0.000000 0.000000 0.000000 0.000000 0.000000 0.000000 0.000000 19.612236 -23.519039 1.249750 82.921790 -24.580027 -5.333382 4.363689 19.854062 0.000847 8.565531 3.017032 0.224424 0.037047 0.009077 0.000000 0.000000 0.000000 0.000000 0.000000 0.000000 0.000000 
-19.641100 16.193144 -2.896743 -163.857262 87.238175 -155.192035 -12.080697 6.873936 1.649116 2.461407 8.735868 16.953610 -0.101339 1.588606 13.078495 1.216930 3.778401 22.725203 1.324300 0.000000 -90.860600 8.072796 0.200424 1.328880 14.728209 -5.725739 -47.980555 1.962831 -2.682289 44.779220 -3.241229 -8.976704 -22.217284 2.314400 0.000000 -17.815400 8.930960 -6.242483 -5.182159 1.520118 -7.058516 -3.261138 -6.112838 -6.922525 3.469303 12.813390 -23.120600 -13.977702 -2.198574 -0.073405 -1.653526 0.000000 0.000000 0.000000 4.849039 8.794988 2.651334 -22.692724 -8.401626 6.422976 -2.004212 -43.126583 -0.015242 5.893209 -0.549978 -0.038252 -0.206703 0.195866 0.000000 0.000000 0.000000 0.000000 0.000000 0.000000 0.000000 19.689967 -23.306128 1.230146 82.435397 -23.901163 -6.673687 4.440034 18.951212 -0.000430 8.992425 2.029787 0.158101 0.037713 0.012591 0.000000 0.000000 0.000000 0.000000 0.000000 0.000000 0.000000 
-19.400112 16.211296 -2.859788 -163.907490 87.201518 -155.296139 -12.136674 6.916413 1.785725 2.787370 8.398519 16.343862 0.047941 1.666177 14.713457 1.363672 3.124498 25.772635 1.024700 -0.000001 -89.007600 8.105839 0.149993 1.268269 14.759261 -5.800011 -47.257730 1.900929 -2.694839 45.473227 -3.325451 -9.276228 -22.864558 2.519800 -0.000000 -15.398700 9.015009 -6.195311 -5.291649 1.528009 -7.021728 -3.282129 -6.138731 -6.884372 3.483791 12.787014 -22.918820 -13.972291 -2.242816 -0.078445 -1.650515 0.000000 0.000000 0.000000 4.681182 9.015433 2.642150 -23.221005 -7.480907 6.489750 -2.083749 -42.285346 -0.014656 6.186431 -0.605846 -0.042639 -0.211081 0.183717 0.000000 0.000000 0.000000 0.000000 0.000000 0.000000 0.000000 19.775557 -23.053134 1.216590 81.944045 -23.099806 -8.232019 4.509752 17.901058 -0.001917 9.309447 0.843082 0.067075 0.039033 0.016327 0.000000 0.000000 0.000000 0.000000 0.000000 0.000000 0.000000 
-19.160765 16.229798 -2.821907 -163.888578 87.197650 -155.357301 -12.198093 6.925025 1.903317 3.085113 8.112808 15.625355 0.174622 1.718148 16.551887 1.518192 2.503636 28.481989 0.682800 -0.000000 -85.629200 8.136406 0.093261 1.202226 14.795681 -5.888079 -46.455188 1.853844 -2.696299 46.040426 -3.384429 -9.472216 -23.462716 2.702300 -0.000000 -13.070500 9.070245 -6.134661 -5.363907 1.525205 -6.968704 -3.296061 -6.171248 -6.830846 3.492480 12.766222 -22.679061 -13.958981 -2.293515 -0.084212 -1.645607 0.000000 0.000000 0.000000 4.504436 9.235220 2.623627 -23.865770 -6.526657 6.555242 -2.169525 -41.409368 -0.013759 6.445950 -0.655043 -0.046532 -0.214564 0.170437 0.000000 0.000000 0.000000 0.000000 0.000000 0.000000 0.000000 19.874577 -22.756483 1.210308 81.443595 -22.185924 -9.972661 4.563645 16.731225 -0.003587 9.427789 -0.536060 -0.045653 0.041209 0.020107 0.000000 0.000000 0.000000 0.000000 0.000000 0.000000 0.000000 
-18.923533 16.248456 -2.783162 -163.845962 87.230149 -155.427510 -12.257919 6.899656 1.988965 3.346594 7.907216 14.798158 0.273191 1.752920 18.609473 1.668281 2.045199 30.671882 0.392500 0.000001 -80.840100 8.168315 0.030625 1.131730 14.823585 -5.983365 -45.562751 1.820006 -2.687973 46.486631 -3.416477 -9.558384 -24.007464 2.855500 -0.000000 -10.884400 9.091166 -6.060798 -5.386651 1.509976 -6.898962 -3.300666 -6.212895 -6.761305 3.490396 12.756065 -22.405822 -13.934801 -2.349561 -0.090593 -1.638190 0.000000 0.000000 0.000000 4.323856 9.475509 2.600101 -24.610913 -5.578536 6.641926 -2.262788 -40.486400 -0.012555 6.664543 -0.698306 -0.049931 -0.217278 0.156190 0.000000 0.000000 0.000000 0.000000 0.000000 0.000000 0.000000 19.981785 -22.417887 1.192617 80.904421 -21.149957 -11.818305 4.572891 15.516215 -0.004318 8.983721 -1.458286 -0.115563 0.045379 0.020722 0.000000 0.000000 0.000000 0.000000 0.000000 0.000000 0.000000 
-18.689427 16.267171 -2.743637 -163.820510 87.299630 -155.553512 -12.309855 6.843304 2.030923 3.568188 7.810574 13.858133 0.343916 1.783077 20.898443 1.803901 1.887398 32.194507 0.262200 -0.000000 -74.962801 8.205132 -0.037997 1.058765 14.831125 -6.079210 -44.572788 1.797478 -2.671323 46.820566 -3.422718 -9.539618 -24.500305 2.977100 0.000000 -8.865800 9.072268 -5.975060 -5.351843 1.480214 -6.813101 -3.297202 -6.268403 -6.675944 3.462010 12.756876 -22.088456 -13.882796 -2.413515 -0.098063 -1.623606 0.000000 0.000000 0.000000 4.164355 9.700150 2.577682 -25.466466 -4.583732 6.743053 -2.364815 -39.538089 -0.011039 6.825415 -0.734269 -0.052435 -0.219215 0.141037 0.000000 0.000000 0.000000 0.000000 0.000000 0.000000 0.000000 20.085806 -22.019880 1.140075 80.308526 -19.996548 -13.719519 4.513232 14.365711 -0.002521 7.701932 -0.915261 -0.062026 0.052253 0.013682 0.000000 0.000000 0.000000 0.000000 0.000000 0.000000 0.000000 
-18.458937 16.285878 -2.703515 -163.861333 87.402466 -155.787223 -12.347620 6.759107 2.021969 3.741882 7.833343 12.804551 0.393014 1.821628 23.414139 1.921026 2.158766 32.963866 0.390500 0.000000 -68.532300 8.250029 -0.111697 0.985566 14.807674 -6.170369 -43.483173 1.784527 -2.648541 47.051895 -3.406738 -9.431006 -24.947458 3.068400 0.000000 -7.019300 9.011114 -5.873494 -5.255425 1.437357 -6.706689 -3.281861 -6.325834 -6.571929 3.426202 12.764001 -21.733278 -13.827574 -2.483908 -0.106099 -1.608670 0.000000 0.000000 0.000000 4.011300 9.919011 2.545624 -26.419055 -3.589328 6.871593 -2.471600 -38.547868 -0.009278 6.924545 -0.759002 -0.053748 -0.220300 0.125111 0.000000 0.000000 0.000000 0.000000 0.000000 0.000000 0.000000 20.221763 -21.574666 1.105664 79.706619 -18.777797 -15.596165 4.439078 13.190131 -0.001692 6.392073 -0.864053 -0.048207 0.058687 0.008897 0.000000 0.000000 0.000000 0.000000 0.000000 0.000000 0.000000 
-18.232194 16.304658 -2.662987 -164.032580 87.535152 -156.191538 -12.366673 6.650330 1.959652 3.853957 7.967557 11.639169 0.429308 1.878854 26.141824 2.020911 2.940341 32.951029 0.829700 -0.000001 -62.112400 8.306223 -0.189216 0.913140 14.744796 -6.252914 -42.297291 1.779274 -2.621392 47.190659 -3.374016 -9.254339 -25.359955 3.134200 -0.000000 -5.326501 8.907053 -5.757934 -5.097615 1.381024 -6.581405 -3.256277 -6.389440 -6.450308 3.374225 12.777320 -21.335846 -13.757263 -2.561519 -0.114927 -1.590148 0.000000 0.000000 0.000000 3.881017 10.123387 2.509351 -27.472741 -2.585139 7.025882 -2.584717 -37.515395 -0.007345 6.953090 -0.767316 -0.053468 -0.220671 0.108596 0.000000 0.000000 0.000000 0.000000 0.000000 0.000000 0.000000 20.373772 -21.072552 1.067126 79.078677 -17.491642 -17.382314 4.330177 12.089982 -0.000426 4.762557 -0.412835 -0.016882 0.065959 0.002245 0.000000 0.000000 0.000000 0.000000 0.000000 0.000000 0.000000 
-18.009333 16.323614 -2.622280 -164.402263 87.691023 -156.829508 -12.364319 6.519592 1.846869 3.892158 8.195222 10.359973 0.461479 1.960839 29.062619 2.107521 4.238279 32.159364 1.560600 -0.000001 -56.081800 8.375790 -0.269491 0.843681 14.638119 -6.323119 -41.025043 1.780038 -2.591568 47.246161 -3.331697 -9.038084 -25.751389 3.182200 -0.000001 -3.756299 8.760650 -5.628317 -4.885573 1.312082 -6.437188 -3.223096 -6.457816 -6.311082 3.303685 12.791212 -20.892224 -13.667033 -2.646858 -0.124675 -1.566588 0.000000 0.000000 0.000000 3.787721 10.278411 2.468374 -28.641446 -1.530419 7.183057 -2.703294 -36.449467 -0.005323 6.902262 -0.754344 -0.051195 -0.220316 0.091659 0.000000 0.000000 0.000000 0.000000 0.000000 0.000000 0.000000 20.535043 -20.507837 1.030887 78.438199 -16.163550 -19.019038 4.197911 11.096627 0.000998 2.949901 0.325329 0.008447 0.073704 -0.005561 0.000000 0.000000 0.000000 0.000000 0.000000 0.000000 0.000000 
-17.790663 16.342962 -2.581690 -165.090516 87.862574 -157.813917 -12.337160 6.367879 1.691258 3.832758 8.474619 8.978260 0.496803 2.068424 32.129952 2.189554 6.016412 30.650506 2.514600 -0.000000 -50.941300 8.461723 -0.350181 0.776476 14.483319 -6.383259 -39.678498 1.785942 -2.560786 47.224819 -3.286376 -8.808149 -26.137133 3.220900 0.000000 -2.263800 8.577256 -5.485824 -4.626786 1.233605 -6.275775 -3.181423 -6.527112 -6.155762 3.225914 12.801979 -20.414882 -13.566553 -2.735979 -0.134791 -1.540819 0.000000 0.000000 0.000000 3.711965 10.448026 2.422996 -29.897495 -0.532400 7.378449 -2.827606 -35.304467 -0.003377 6.784557 -0.710822 -0.046731 -0.219535 0.074663 0.000000 0.000000 0.000000 0.000000 0.000000 0.000000 0.000000 20.698923 -19.895321 0.995470 77.788257 -14.788778 -20.435501 4.055280 10.224759 0.002327 1.092939 1.208172 0.010974 0.081465 -0.013713 0.000000 0.000000 0.000000 0.000000 0.000000 0.000000 0.000000 
